#!OML:ASF H:\Male1\Project 1\Capture day 1\Session 1\Male1.ASF
:FULLY-SPECIFIED
:DEGREES
880
root 16.1163 15.4038 2.83869 177.8 56.6397 182.421
lowerback 2.54464 0.363071 -0.469973
upperback 2.60789 0.535432 -0.436365
thorax 1.24561 0.287799 -0.190566
lowerneck -7.67973 5.83783 10.2113
upperneck 6.17508 7.77382 -11.6787
head 3.96115 3.62002 -4.76867
rclavicle -4.27387e-015 1.03368e-014
rhumerus 35.8378 -27.868 -100.576
rradius 26.1883
rwrist -51.1434
rhand -30.3839 -6.98445
rfingers 7.12502
rthumb -3.68814 -36.9323
lclavicle -4.27387e-015 1.03368e-014
lhumerus 81.1921 -41.2347 14.5842
lradius 104.799
lwrist 35.0992
lhand -9.73408 4.35737
lfingers 7.12502
lthumb 16.2397 33.6972
rfemur 0.782657 19.8416 22.0917
rtibia 21.1688
rfoot -25.6819 -27.1836
rtoes -22.5489
lfemur 2.04249 -24.2703 -17.6978
ltibia 21.2617
lfoot -19.2479 23.3442
ltoes -20.4609
881
root 16.1153 15.4048 2.83643 177.534 56.7843 182.124
lowerback 2.56034 0.374845 -0.551559
upperback 2.55944 0.548702 -0.48797
thorax 1.1869 0.293272 -0.198267
lowerneck -7.64718 5.83071 10.275
upperneck 6.22412 7.77066 -11.7364
head 3.975 3.61847 -4.79805
rclavicle 3.96824e-014 -1.23246e-014
rhumerus 36.2279 -27.4781 -100.3
rradius 25.4273
rwrist -51.4865
rhand -30.7317 -6.85249
rfingers 7.12502
rthumb -4.02408 -36.7942
lclavicle 3.96824e-014 -1.23246e-014
lhumerus 83.5676 -41.7978 11.1218
lradius 106.096
lwrist 35.1886
lhand -7.49835 3.58947
lfingers 7.12502
lthumb 18.3915 32.74
rfemur 0.687865 19.8749 21.8719
rtibia 21.306
rfoot -25.7991 -26.9339
rtoes -22.0654
lfemur 2.19999 -24.2765 -17.9323
ltibia 21.1101
lfoot -19.0866 23.5768
ltoes -21.1315
882
root 16.1132 15.4012 2.83196 177.109 56.8963 181.67
lowerback 2.60481 0.358413 -0.683818
upperback 2.49283 0.523201 -0.573993
thorax 1.09341 0.279044 -0.212548
lowerneck -7.56514 5.83705 10.3878
upperneck 6.29739 7.78733 -11.7994
head 3.99219 3.62894 -4.83664
rclavicle -4.90874e-014 -1.11319e-014
rhumerus 35.43 -26.1663 -98.922
rradius 25.859
rwrist -52.8983
rhand -31.6439 -7.14507
rfingers 7.12502
rthumb -4.90487 -37.0683
lclavicle -4.90874e-014 -1.11319e-014
lhumerus 85.5432 -42.4442 8.05491
lradius 107.099
lwrist 35.1691
lhand -4.78312 2.71621
lfingers 7.12502
lthumb 21.0018 31.5991
rfemur 0.659614 19.7785 21.58
rtibia 21.4879
rfoot -25.3175 -27.1894
rtoes -24.6661
lfemur 2.39886 -24.2708 -18.2801
ltibia 20.9139
lfoot -19.302 23.6596
ltoes -20.6806
883
root 16.1089 15.3993 2.8263 176.641 57.0309 181.14
lowerback 2.39186 0.266499 -1.02519
upperback 2.62171 0.402205 -0.533017
thorax 1.34278 0.213052 0.0242804
lowerneck -7.61962 5.93371 10.3238
upperneck 6.1411 7.91775 -11.8914
head 3.97087 3.68831 -4.8438
rclavicle -3.42407e-014 -3.97569e-016
rhumerus 34.8984 -25.5129 -98.9341
rradius 27.233
rwrist -52.6854
rhand -32.5988 -8.0835
rfingers 7.12502
rthumb -5.82689 -37.9834
lclavicle -3.42407e-014 -3.97569e-016
lhumerus 86.9202 -42.814 5.61918
lradius 107.85
lwrist 35.3356
lhand -1.81019 2.11455
lfingers 7.12502
lthumb 23.8554 30.6532
rfemur 0.623453 19.7229 21.2218
rtibia 21.5918
rfoot -25.2447 -27.0926
rtoes -25.0855
lfemur 2.5247 -24.2707 -18.6797
ltibia 20.804
lfoot -19.7862 23.6509
ltoes -18.9946
884
root 16.1031 15.4006 2.82535 176.611 57.2169 181.112
lowerback 2.38836 0.281446 -0.967267
upperback 2.62914 0.421967 -0.470107
thorax 1.35207 0.223039 0.056081
lowerneck -7.7171 5.88953 10.0404
upperneck 6.04445 7.86386 -11.7934
head 3.9367 3.65761 -4.76912
rclavicle -2.53202e-014 -2.78299e-015
rhumerus 34.6483 -24.9895 -98.5827
rradius 27.8635
rwrist -52.8389
rhand -32.7647 -8.76611
rfingers 7.12502
rthumb -5.98702 -38.6615
lclavicle -2.53202e-014 -2.78299e-015
lhumerus 88.461 -43.3431 3.20803
lradius 108.522
lwrist 35.6258
lhand 0.772529 2.16125
lfingers 7.12502
lthumb 26.3301 30.3536
rfemur 0.559763 19.7968 21.1778
rtibia 21.6125
rfoot -25.513 -26.732
rtoes -23.734
lfemur 2.5816 -24.2329 -18.7332
ltibia 20.7813
lfoot -20.0831 23.6154
ltoes -17.5609
885
root 16.0976 15.4011 2.82827 176.992 57.4299 181.584
lowerback 2.4026 0.310464 -0.659483
upperback 2.6457 0.462788 -0.346492
thorax 1.36184 0.247013 0.00977388
lowerneck -7.80405 5.82177 9.91129
upperneck 5.95713 7.77694 -11.8318
head 3.91203 3.6093 -4.76532
rclavicle 2.24999e-014 -3.57812e-015
rhumerus 34.9988 -24.646 -98.4282
rradius 27.745
rwrist -52.8104
rhand -32.0162 -7.94691
rfingers 7.12502
rthumb -5.26439 -37.8615
lclavicle 2.24999e-014 -3.57812e-015
lhumerus 89.7612 -43.8874 1.03639
lradius 109.087
lwrist 35.5851
lhand 3.26604 2.56732
lfingers 7.12502
lthumb 28.7147 30.3798
rfemur 0.533026 19.9164 21.4643
rtibia 21.5799
rfoot -24.9352 -27.0887
rtoes -26.048
lfemur 2.61348 -24.119 -18.4511
ltibia 20.8044
lfoot -19.879 23.7314
ltoes -18.3141
886
root 16.0921 15.4003 2.83117 177.221 57.6241 181.874
lowerback 2.39472 0.31004 -0.450827
upperback 2.64842 0.463786 -0.283362
thorax 1.36998 0.250087 -0.0424048
lowerneck -7.72376 5.76251 10.126
upperneck 5.80865 7.69563 -12.1145
head 3.86548 3.56799 -4.89824
rclavicle -4.37078e-014 3.97569e-016
rhumerus 34.0741 -23.0883 -96.9441
rradius 28.9563
rwrist -54.3812
rhand -30.4466 -6.06631
rfingers 7.12502
rthumb -3.74879 -36.0131
lclavicle -4.37078e-014 3.97569e-016
lhumerus 90.611 -44.5413 -0.669049
lradius 109.416
lwrist 34.9263
lhand -3.08048 2.2691
lfingers 7.12502
lthumb 22.6367 30.9616
rfemur 0.530155 19.9949 21.6328
rtibia 21.5207
rfoot -25.4196 -26.6243
rtoes -23.7612
lfemur 2.62231 -24.0338 -18.2835
ltibia 20.8519
lfoot -19.6652 23.9212
ltoes -19.4473
887
root 16.0855 15.3988 2.83191 177.19 57.8006 181.857
lowerback 2.38958 0.28261 -0.376105
upperback 2.62306 0.426823 -0.271225
thorax 1.34729 0.232286 -0.0714822
lowerneck -7.54846 5.73649 10.2747
upperneck 5.66632 7.66799 -12.3207
head 3.80498 3.55784 -4.99437
rclavicle 3.39176e-015 -4.37326e-015
rhumerus 33.5136 -22.0027 -96.1779
rradius 29.886
rwrist -54.89
rhand -35.3364 -10.7498
rfingers 7.12502
rthumb -8.46944 -40.5599
lclavicle 3.39176e-015 -4.37326e-015
lhumerus 90.7843 -45.402 -1.49033
lradius 109.482
lwrist 33.747
lhand -8.39502 2.24618
lfingers 7.12502
lthumb 17.5287 31.4759
rfemur 0.505666 20.0464 21.5973
rtibia 21.4939
rfoot -25.5041 -26.3974
rtoes -22.8553
lfemur 2.65033 -23.9799 -18.3203
ltibia 20.8717
lfoot -19.9566 23.93
ltoes -18.7209
888
root 16.0774 15.398 2.83131 177.001 57.9707 181.677
lowerback 2.40874 0.234548 -0.384364
upperback 2.63052 0.362702 -0.266668
thorax 1.34424 0.200124 -0.0615191
lowerneck -7.54263 5.78275 10.2445
upperneck 5.67235 7.73754 -12.3367
head 3.81341 3.59132 -4.98901
rclavicle 1.09096e-013 -9.93923e-016
rhumerus 32.8226 -20.9444 -95.5518
rradius 30.9046
rwrist -54.7884
rhand -35.0521 -10.2865
rfingers 7.12502
rthumb -8.19502 -40.1076
lclavicle 1.09096e-013 -9.93923e-016
lhumerus 90.2194 -46.3026 -1.36216
lradius 109.52
lwrist 33.2452
lhand -11.0229 2.26262
lfingers 7.12502
lthumb 14.9984 31.6994
rfemur 0.446198 20.0607 21.4405
rtibia 21.5413
rfoot -25.4194 -26.1968
rtoes -22.752
lfemur 2.73743 -23.8956 -18.471
ltibia 20.8165
lfoot -20.1458 23.9931
ltoes -18.2749
889
root 16.0696 15.3971 2.83059 176.672 58.0911 181.342
lowerback 2.47267 0.187213 -0.487172
upperback 2.64189 0.299019 -0.297628
thorax 1.31997 0.167305 -0.0351229
lowerneck -7.53154 5.82968 10.3937
upperneck 5.62346 7.79432 -12.4682
head 3.8151 3.61853 -5.05078
rclavicle -2.7308e-014 3.97569e-015
rhumerus 32.3843 -19.8686 -94.8682
rradius 31.5739
rwrist -54.641
rhand -34.7549 -10.1199
rfingers 7.12502
rthumb -7.90817 -39.952
lclavicle -2.7308e-014 3.97569e-015
lhumerus 89.3534 -47.1231 -0.769233
lradius 109.76
lwrist 34.4001
lhand -11.2142 2.45952
lfingers 7.12502
lthumb 14.8141 31.91
rfemur 0.3914 19.9736 21.1864
rtibia 21.6335
rfoot -25.4225 -25.9193
rtoes -22.8358
lfemur 2.84306 -23.8169 -18.7112
ltibia 20.7223
lfoot -19.7628 24.1937
ltoes -19.2224
890
root 16.0654 15.3972 2.83186 176.436 58.1558 181.095
lowerback 2.49578 0.154774 -0.581178
upperback 2.64649 0.255188 -0.338798
thorax 1.31174 0.144473 -0.0241397
lowerneck -7.33336 5.80813 10.7195
upperneck 5.37357 7.74667 -12.7081
head 3.72483 3.60223 -5.18944
rclavicle 1.74247e-014 2.18663e-015
rhumerus 32.1267 -18.9702 -94.2693
rradius 32.1389
rwrist -54.6787
rhand -29.3795 -4.38083
rfingers 7.12502
rthumb -2.71823 -34.3433
lclavicle 1.74247e-014 2.18663e-015
lhumerus 88.5999 -47.871 -0.165086
lradius 110.113
lwrist 35.7701
lhand -11.1074 3.37946
lfingers 7.12502
lthumb 14.917 32.8223
rfemur 0.339088 19.898 21.0177
rtibia 21.7242
rfoot -25.3939 -25.8104
rtoes -23.0589
lfemur 2.90634 -23.7175 -18.8554
ltibia 20.6407
lfoot -19.4211 24.2385
ltoes -19.8505
891
root 16.0619 15.3972 2.83599 176.303 58.1685 180.95
lowerback 2.42599 0.139997 -0.649599
upperback 2.70102 0.237383 -0.36926
thorax 1.4068 0.135084 -0.0164033
lowerneck -7.33662 5.78367 10.8855
upperneck 5.27987 7.69647 -12.8209
head 3.70272 3.57736 -5.25657
rclavicle -2.61961e-014 -7.7526e-015
rhumerus 31.5452 -17.5855 -92.9903
rradius 33.1139
rwrist -55.5457
rhand -29.522 -4.67866
rfingers 7.12502
rthumb -2.85587 -34.6393
lclavicle -2.61961e-014 -7.7526e-015
lhumerus 88.1605 -48.4409 0.128425
lradius 110.403
lwrist 35.3967
lhand -11.8698 4.26484
lfingers 7.12502
lthumb 14.1825 33.7607
rfemur 0.271827 19.7924 20.9476
rtibia 21.8198
rfoot -25.001 -26.0481
rtoes -23.7687
lfemur 2.92641 -23.6223 -18.9025
ltibia 20.5476
lfoot -19.3883 24.1814
ltoes -20.0713
892
root 16.055 15.3967 2.83991 176.313 58.1608 180.932
lowerback 2.45932 0.117399 -0.649381
upperback 2.65243 0.205259 -0.374847
thorax 1.3384 0.11872 -0.0220784
lowerneck -7.28949 5.72806 10.9931
upperneck 5.31089 7.60983 -12.7755
head 3.69563 3.53865 -5.26789
rclavicle 1.084e-014 1.25234e-014
rhumerus 30.8569 -16.9593 -92.5983
rradius 34.374
rwrist -55.0462
rhand -29.0567 -4.59143
rfingers 7.12502
rthumb -2.40644 -34.5576
lclavicle 1.084e-014 1.25234e-014
lhumerus 87.8854 -49.025 0.149225
lradius 110.604
lwrist 33.9705
lhand -12.8694 4.45254
lfingers 7.12502
lthumb 13.2191 34.0134
rfemur 0.166843 19.7053 20.9324
rtibia 21.9102
rfoot -24.6924 -26.2808
rtoes -24.2711
lfemur 2.89501 -23.5848 -18.8736
ltibia 20.4494
lfoot -19.3171 24.1544
ltoes -20.1511
893
root 16.0477 15.3991 2.84299 176.217 58.1474 180.801
lowerback 2.51827 0.0917078 -0.69313
upperback 2.59097 0.168252 -0.408777
thorax 1.24247 0.0995583 -0.0321073
lowerneck -7.12396 5.68797 10.9147
upperneck 5.23838 7.54407 -12.5132
head 3.6242 3.51861 -5.18166
rclavicle -1.62755e-015 -3.97569e-016
rhumerus 30.473 -15.5826 -91.4297
rradius 34.8938
rwrist -55.4064
rhand -28.9242 -4.08037
rfingers 7.12502
rthumb -2.27846 -34.048
lclavicle -1.62755e-015 -3.97569e-016
lhumerus 87.8236 -49.444 -0.080806
lradius 110.752
lwrist 33.0377
lhand -13.7509 4.62368
lfingers 7.12502
lthumb 12.3693 34.2378
rfemur 0.0735391 19.7962 20.8087
rtibia 21.9753
rfoot -25.1076 -26.04
rtoes -23.4141
lfemur 2.87204 -23.5641 -18.9291
ltibia 20.3768
lfoot -19.4009 24.0491
ltoes -19.4008
894
root 16.043 15.4006 2.84798 175.986 58.1381 180.557
lowerback 2.61485 0.0883661 -0.846541
upperback 2.55975 0.160363 -0.435864
thorax 1.15622 0.0937994 0.025928
lowerneck -7.09627 5.66285 10.6936
upperneck 5.21069 7.50326 -12.2172
head 3.58569 3.50463 -5.0562
rclavicle 2.78671e-014 1.39149e-015
rhumerus 30.1709 -14.6185 -90.7423
rradius 35.696
rwrist -55.0339
rhand -28.9277 -3.74385
rfingers 7.12502
rthumb -2.28191 -33.7114
lclavicle 2.78671e-014 1.39149e-015
lhumerus 88.023 -49.6678 -0.508338
lradius 110.922
lwrist 32.6063
lhand -14.8596 5.25195
lfingers 7.12502
lthumb 11.3002 34.9275
rfemur 0.0416944 19.8702 20.6504
rtibia 22.0213
rfoot -25.399 -25.8212
rtoes -22.8136
lfemur 2.89496 -23.5337 -19.056
ltibia 20.3232
lfoot -19.5344 23.9782
ltoes -19.0225
